<?xml version="1.0" encoding="utf-8"?>
<!-- Generator: Adobe Illustrator 27.5.0, SVG Export Plug-In . SVG Version: 6.00 Build 0)  -->
<svg version="1.1" id="Layer_1" xmlns="http://www.w3.org/2000/svg" xmlns:xlink="http://www.w3.org/1999/xlink" x="0px" y="0px"
	 viewBox="0 0 612 792" style="enable-background:new 0 0 612 792;" xml:space="preserve">
<style type="text/css">
	.st0{opacity:0.7;fill:#B1DAE9;stroke:#A2DEF9;stroke-miterlimit:10;enable-background:new    ;}
	.st1{opacity:0.7;fill:#FFE58C;stroke:#E8E613;stroke-miterlimit:10;enable-background:new    ;}
	.st2{opacity:0.7;fill:#C59EC9;stroke:#7F3F98;stroke-miterlimit:10;enable-background:new    ;}
	.st3{opacity:0.7;fill:#6272B6;stroke:#000000;stroke-miterlimit:10;enable-background:new    ;}
	.st4{opacity:0.7;fill:#CF70AD;stroke:#000000;stroke-miterlimit:10;enable-background:new    ;}
	.st5{opacity:0.7;fill:#EE2459;stroke:#EC008C;stroke-miterlimit:10;enable-background:new    ;}
	.st6{opacity:0.7;fill:#76C26C;stroke:#00A651;stroke-miterlimit:10;enable-background:new    ;}
	.st7{fill:none;}
</style>
<g id="Layer_1_00000112617791751603421940000002793517204330151352_">
	<ellipse class="st0" cx="251.3" cy="345.5" rx="63.5" ry="69.5"/>
	<ellipse class="st1" cx="359.1" cy="341.8" rx="61.5" ry="69.5"/>
	<ellipse class="st2" cx="188.3" cy="451.8" rx="61.5" ry="69.5"/>
	<ellipse class="st3" cx="242.5" cy="555.8" rx="62.6" ry="69.2"/>
	<ellipse class="st4" cx="350" cy="557.8" rx="61.5" ry="69.5"/>
	<ellipse class="st5" cx="410" cy="446" rx="61.5" ry="69.5"/>
	<ellipse class="st6" cx="301.9" cy="447.6" rx="70.7" ry="73.6"/>
</g>
<g id="Layer_2_00000138558100783331268740000002804235003415963277_">
	<g>
		<g>
			<path d="M260,455.1H258v-14.9h2.1V455.1z"/>
			<path d="M263.7,440.2h2.1v14.9h-2.1V440.2z M265.1,453.1h3.4c1.1,0,2-0.3,2.6-0.9c0.6-0.6,0.9-1.4,0.9-2.4v-4.4
				c0-1-0.3-1.8-0.9-2.4c-0.6-0.6-1.5-0.9-2.6-0.9h-3.4v-2h3.3c1.2,0,2.2,0.2,3.1,0.6s1.5,1,1.9,1.8c0.4,0.8,0.7,1.8,0.7,2.9v4.2
				c0,1.1-0.2,2.1-0.7,2.9c-0.4,0.8-1.1,1.4-1.9,1.8c-0.9,0.4-1.9,0.6-3.1,0.6h-3.3L265.1,453.1L265.1,453.1z"/>
			<path d="M277.5,440.2h2.1v14.9h-2.1V440.2z M278.5,440.2h8.6v2h-8.6V440.2z M278.5,446.7h7.4v2h-7.4V446.7z M278.5,453.1h8.6v2
				h-8.6V453.1z"/>
			<path d="M290.1,440.2h1.9l7.3,11.5L299,452v-11.8h2.1v14.9h-1.9l-7.3-11.4l0.2-0.3v11.6h-2.1V440.2z"/>
			<path d="M302.7,440.2h10.5v2h-10.5V440.2z M306.9,441.4h2.1v13.7h-2.1V441.4z"/>
			<path d="M317,455.1h-2.1v-14.9h2.1V455.1z"/>
			<path d="M318.6,440.2h10.5v2h-10.5V440.2z M322.8,441.4h2.1v13.7h-2.1V441.4z"/>
			<path d="M335.2,449.1v6.1h-2.1v-6.1l-4.5-8.9h2.3l3.3,6.7l3.3-6.7h2.3L335.2,449.1z"/>
		</g>
	</g>
	<g>
		<g>
			<path d="M140.3,447h1.3v9.2h-1.3V447z M140.9,447h5.3v1.2h-5.3V447z M140.9,451h4.6v1.2h-4.6V451z M140.9,454.9h5.3v1.2h-5.3
				V454.9z"/>
			<path d="M154.7,447h1.2v9.2h-1.3v-6.9l0.1,0.4l-2.3,5.2h-0.9l-2.3-5.1l0.1-0.5v6.9H148V447h1.2l2.7,6.1L154.7,447z"/>
			<path d="M158.2,447h1.3v9.2h-1.3V447z M158.8,451.4h2.9c0.3,0,0.5-0.1,0.7-0.2c0.2-0.1,0.4-0.3,0.5-0.6c0.1-0.2,0.2-0.5,0.2-0.8
				c0-0.3-0.1-0.6-0.2-0.8c-0.1-0.2-0.3-0.4-0.5-0.6s-0.5-0.2-0.7-0.2h-2.9v-1.2h2.9c0.6,0,1,0.1,1.4,0.4s0.7,0.6,1,1
				c0.2,0.4,0.4,0.9,0.4,1.5s-0.1,1.1-0.4,1.5c-0.2,0.4-0.6,0.8-1,1c-0.4,0.2-0.9,0.4-1.4,0.4h-2.9V451.4z"/>
			<path d="M166.3,447h1.3v9.2h-1.3V447z M166.9,454.9h5.3v1.2h-5.3V454.9z"/>
			<path d="M175.1,455.9c-0.5-0.3-0.9-0.7-1.1-1.2s-0.4-1.1-0.4-1.8v-2.6c0-0.7,0.1-1.3,0.4-1.8c0.3-0.5,0.6-0.9,1.1-1.2
				s1.1-0.4,1.7-0.4s1.2,0.1,1.7,0.4s0.9,0.7,1.1,1.2s0.4,1.1,0.4,1.8v2.6c0,0.7-0.1,1.3-0.4,1.8c-0.3,0.5-0.6,0.9-1.1,1.2
				s-1.1,0.4-1.7,0.4S175.6,456.1,175.1,455.9z M177.8,454.7c0.3-0.2,0.5-0.4,0.7-0.7c0.2-0.3,0.2-0.7,0.2-1.1v-2.7
				c0-0.4-0.1-0.8-0.2-1.1c-0.2-0.3-0.4-0.6-0.7-0.7s-0.6-0.3-1-0.3s-0.7,0.1-1,0.3s-0.5,0.4-0.7,0.7c-0.2,0.3-0.2,0.7-0.2,1.1v2.7
				c0,0.4,0.1,0.8,0.2,1.1c0.2,0.3,0.4,0.6,0.7,0.7s0.6,0.3,1,0.3S177.5,454.9,177.8,454.7z"/>
			<path d="M184.9,452.4v3.8h-1.3v-3.8l-2.8-5.5h1.4l2,4.2l2-4.2h1.4L184.9,452.4z"/>
			<path d="M195.3,447h1.2v9.2h-1.3v-6.9l0.1,0.4l-2.3,5.2h-0.9l-2.3-5.1l0.1-0.5v6.9h-1.3V447h1.2l2.7,6.1L195.3,447z"/>
			<path d="M198.8,447h1.3v9.2h-1.3V447z M199.4,447h5.3v1.2h-5.3V447z M199.4,451h4.6v1.2h-4.6V451z M199.4,454.9h5.3v1.2h-5.3
				V454.9z"/>
			<path d="M206.5,447h1.2l4.5,7.1l-0.1,0.2V447h1.3v9.2h-1.2l-4.5-7l0.1-0.2v7.2h-1.3L206.5,447L206.5,447z"/>
			<path d="M214.4,447h6.5v1.2h-6.5V447z M217,447.7h1.3v8.5H217V447.7z"/>
		</g>
	</g>
	<g>
		<g>
			<path d="M212.5,343.2h1.4v9.9h-1.4V343.2z M213.2,343.2h5.7v1.3h-5.7V343.2z M213.2,347.5h5v1.3h-5V347.5z M213.2,351.8h5.7v1.3
				h-5.7V351.8z"/>
			<path d="M220.9,343.2h1.4v9.9h-1.4V343.2z M221.9,351.8h2.2c0.7,0,1.3-0.2,1.7-0.6s0.6-0.9,0.6-1.6v-2.9c0-0.7-0.2-1.2-0.6-1.6
				s-1-0.6-1.7-0.6h-2.2v-1.3h2.2c0.8,0,1.5,0.1,2,0.4s1,0.7,1.3,1.2s0.4,1.2,0.4,1.9v2.8c0,0.8-0.1,1.4-0.4,1.9s-0.7,0.9-1.3,1.2
				s-1.2,0.4-2.1,0.4h-2.2L221.9,351.8L221.9,351.8z"/>
			<path d="M231.6,352.8c-0.5-0.3-0.9-0.7-1.2-1.3s-0.4-1.2-0.4-2v-6.3h1.4v6.4c0,0.7,0.2,1.3,0.6,1.7s0.9,0.6,1.5,0.6
				c0.7,0,1.2-0.2,1.6-0.6s0.6-1,0.6-1.7v-6.4h1.4v6.3c0,0.8-0.1,1.5-0.4,2s-0.7,1-1.2,1.3s-1.2,0.4-1.9,0.4
				C232.7,353.2,232.1,353.1,231.6,352.8z"/>
			<path d="M240.7,352.8c-0.5-0.3-0.9-0.7-1.2-1.3s-0.4-1.2-0.4-2v-2.7c0-0.7,0.1-1.4,0.4-2s0.7-1,1.2-1.3s1.1-0.5,1.8-0.5
				c0.6,0,1.1,0.1,1.6,0.4s0.9,0.6,1.2,1s0.5,1,0.6,1.5h-1.4c-0.1-0.3-0.2-0.6-0.4-0.8s-0.4-0.4-0.7-0.6s-0.6-0.2-0.9-0.2
				c-0.4,0-0.8,0.1-1.1,0.3s-0.5,0.5-0.7,0.8s-0.2,0.8-0.2,1.2v2.7c0,0.5,0.1,0.9,0.2,1.2s0.4,0.6,0.7,0.8s0.7,0.3,1.1,0.3
				c0.3,0,0.6-0.1,0.9-0.2s0.5-0.3,0.7-0.5s0.4-0.5,0.4-0.9h1.4c-0.1,0.6-0.3,1.1-0.7,1.5s-0.7,0.8-1.2,1s-1,0.4-1.6,0.4
				C241.8,353.2,241.2,353.1,240.7,352.8z"/>
			<path d="M250.6,343.2h1.2l3.7,9.9H254l-2.8-8l-2.8,8H247L250.6,343.2z M248.7,349.6h5.2v1.3h-5.2V349.6z"/>
			<path d="M255.6,343.2h7v1.3h-7V343.2z M258.4,344h1.4v9.1h-1.4V344z"/>
			<path d="M265.1,353.1h-1.4v-9.9h1.4V353.1z"/>
			<path d="M269,352.8c-0.5-0.3-0.9-0.7-1.2-1.3s-0.4-1.2-0.4-1.9v-2.8c0-0.7,0.1-1.4,0.4-1.9s0.7-1,1.2-1.3s1.1-0.5,1.8-0.5
				s1.3,0.1,1.8,0.5s0.9,0.7,1.2,1.3s0.4,1.2,0.4,1.9v2.8c0,0.7-0.1,1.4-0.4,1.9s-0.7,1-1.2,1.3s-1.1,0.5-1.8,0.5
				S269.6,353.1,269,352.8z M272,351.6c0.3-0.2,0.5-0.5,0.7-0.8s0.3-0.7,0.3-1.2v-2.9c0-0.5-0.1-0.8-0.3-1.2s-0.4-0.6-0.7-0.8
				s-0.7-0.3-1.1-0.3s-0.8,0.1-1.1,0.3s-0.5,0.5-0.7,0.8s-0.3,0.7-0.3,1.2v2.9c0,0.5,0.1,0.8,0.3,1.2s0.4,0.6,0.7,0.8
				s0.7,0.3,1.1,0.3S271.6,351.8,272,351.6z"/>
			<path d="M276.6,343.2h1.3l4.9,7.7l-0.2,0.2v-7.9h1.4v9.9h-1.3l-4.9-7.6l0.2-0.2v7.8h-1.4L276.6,343.2L276.6,343.2z"/>
		</g>
	</g>
	<g>
		<g>
			<path d="M325.8,339.3h1.3v9.2h-1.3V339.3z M326.4,339.3h5.3v1.2h-5.3V339.3z M326.4,343.3h4.6v1.2h-4.6V343.3z M326.4,347.3h5.3
				v1.2h-5.3V347.3z"/>
			<path d="M334.9,348.2c-0.5-0.3-0.9-0.7-1.1-1.2c-0.3-0.5-0.4-1.1-0.4-1.8v-2.5c0-0.7,0.1-1.3,0.4-1.8s0.6-0.9,1.1-1.2
				c0.5-0.3,1-0.4,1.7-0.4c0.5,0,1,0.1,1.5,0.3s0.8,0.5,1.1,1c0.3,0.4,0.5,0.9,0.6,1.4h-1.3c-0.1-0.3-0.2-0.5-0.4-0.8
				c-0.2-0.2-0.4-0.4-0.7-0.5s-0.5-0.2-0.8-0.2c-0.4,0-0.7,0.1-1,0.3s-0.5,0.4-0.7,0.8s-0.2,0.7-0.2,1.1v2.5c0,0.4,0.1,0.8,0.2,1.1
				s0.4,0.6,0.7,0.8c0.3,0.2,0.6,0.3,1,0.3c0.3,0,0.5-0.1,0.8-0.2s0.5-0.3,0.7-0.5s0.3-0.5,0.4-0.8h1.3c-0.1,0.5-0.3,1-0.6,1.4
				s-0.7,0.7-1.1,1c-0.4,0.2-0.9,0.3-1.5,0.3C336,348.6,335.4,348.5,334.9,348.2z"/>
			<path d="M343,348.2c-0.5-0.3-0.9-0.7-1.1-1.2c-0.3-0.5-0.4-1.1-0.4-1.8v-2.6c0-0.7,0.1-1.3,0.4-1.8c0.3-0.5,0.6-0.9,1.1-1.2
				c0.5-0.3,1.1-0.4,1.7-0.4s1.2,0.1,1.7,0.4c0.5,0.3,0.9,0.7,1.1,1.2c0.3,0.5,0.4,1.1,0.4,1.8v2.6c0,0.7-0.1,1.3-0.4,1.8
				c-0.3,0.5-0.6,0.9-1.1,1.2c-0.5,0.3-1.1,0.4-1.7,0.4C344,348.6,343.5,348.5,343,348.2z M345.7,347.1c0.3-0.2,0.5-0.4,0.7-0.7
				s0.2-0.7,0.2-1.1v-2.7c0-0.4-0.1-0.8-0.2-1.1c-0.2-0.3-0.4-0.6-0.7-0.7s-0.6-0.3-1-0.3s-0.7,0.1-1,0.3s-0.5,0.4-0.7,0.7
				s-0.2,0.7-0.2,1.1v2.7c0,0.4,0.1,0.8,0.2,1.1c0.2,0.3,0.4,0.6,0.7,0.7s0.6,0.3,1,0.3S345.4,347.3,345.7,347.1z"/>
			<path d="M350,339.3h1.2l4.5,7.1l-0.1,0.2v-7.3h1.3v9.2h-1.2l-4.5-7l0.1-0.2v7.2H350L350,339.3L350,339.3z"/>
			<path d="M360.5,348.2c-0.5-0.3-0.9-0.7-1.1-1.2c-0.3-0.5-0.4-1.1-0.4-1.8v-2.6c0-0.7,0.1-1.3,0.4-1.8c0.3-0.5,0.6-0.9,1.1-1.2
				c0.5-0.3,1.1-0.4,1.7-0.4s1.2,0.1,1.7,0.4c0.5,0.3,0.9,0.7,1.1,1.2c0.3,0.5,0.4,1.1,0.4,1.8v2.6c0,0.7-0.1,1.3-0.4,1.8
				c-0.3,0.5-0.6,0.9-1.1,1.2c-0.5,0.3-1.1,0.4-1.7,0.4C361.5,348.6,361,348.5,360.5,348.2z M363.2,347.1c0.3-0.2,0.5-0.4,0.7-0.7
				s0.2-0.7,0.2-1.1v-2.7c0-0.4-0.1-0.8-0.2-1.1c-0.2-0.3-0.4-0.6-0.7-0.7s-0.6-0.3-1-0.3s-0.7,0.1-1,0.3s-0.5,0.4-0.7,0.7
				s-0.2,0.7-0.2,1.1v2.7c0,0.4,0.1,0.8,0.2,1.1c0.2,0.3,0.4,0.6,0.7,0.7s0.6,0.3,1,0.3S362.9,347.3,363.2,347.1z"/>
			<path d="M374.1,339.3h1.2v9.2h-1.3v-6.9l0.1,0.4l-2.3,5.2H371l-2.3-5.1l0.1-0.5v6.9h-1.3v-9.2h1.2l2.7,6.1L374.1,339.3z"/>
			<path d="M378.9,348.5h-1.3v-9.2h1.3V348.5z"/>
			<path d="M382.5,348.2c-0.5-0.3-0.9-0.7-1.1-1.2c-0.3-0.5-0.4-1.1-0.4-1.8v-2.5c0-0.7,0.1-1.3,0.4-1.8s0.6-0.9,1.1-1.2
				c0.5-0.3,1-0.4,1.7-0.4c0.5,0,1,0.1,1.5,0.3s0.8,0.5,1.1,1c0.3,0.4,0.5,0.9,0.6,1.4h-1.3c-0.1-0.3-0.2-0.5-0.4-0.8
				c-0.2-0.2-0.4-0.4-0.7-0.5s-0.5-0.2-0.8-0.2c-0.4,0-0.7,0.1-1,0.3s-0.5,0.4-0.7,0.8s-0.2,0.7-0.2,1.1v2.5c0,0.4,0.1,0.8,0.2,1.1
				s0.4,0.6,0.7,0.8c0.3,0.2,0.6,0.3,1,0.3c0.3,0,0.5-0.1,0.8-0.2s0.5-0.3,0.7-0.5s0.3-0.5,0.4-0.8h1.3c-0.1,0.5-0.3,1-0.6,1.4
				s-0.7,0.7-1.1,1c-0.4,0.2-0.9,0.3-1.5,0.3C383.6,348.6,383,348.5,382.5,348.2z"/>
			<path d="M329.7,354.9h0.9l1.9,7.2l1.6-7.2h1.4l-2.2,9.2h-1.3l-1.7-6.5l-1.8,6.5h-1.3l-2.2-9.2h1.4l1.6,7.2L329.7,354.9z"/>
			<path d="M336.8,354.9h1.3v9.2h-1.3V354.9z M337.4,354.9h5.3v1.2h-5.3V354.9z M337.4,358.9h4.6v1.2h-4.6V358.9z M337.4,362.9h5.3
				v1.2h-5.3V362.9z"/>
			<path d="M344.6,354.9h1.3v9.2h-1.3V354.9z M345.2,362.9h5.3v1.2h-5.3V362.9z"/>
			<path d="M352,354.9h1.3v9.2H352V354.9z M352.7,362.9h5.3v1.2h-5.3V362.9z"/>
			<path d="M363,354.9h1.3v9.2H363V354.9z M363.7,362.9h2.5c0.7,0,1.1-0.1,1.4-0.4s0.5-0.6,0.5-1v0c0-0.3,0-0.6-0.2-0.8
				c-0.1-0.2-0.3-0.4-0.5-0.5s-0.5-0.2-0.9-0.2h-2.8v-1.2h2.8c0.5,0,0.8-0.1,1.1-0.3s0.4-0.6,0.4-1c0-0.5-0.1-0.8-0.4-1
				s-0.7-0.3-1.2-0.3h-2.6v-1.2h2.9c0.6,0,1.1,0.1,1.5,0.3c0.4,0.2,0.7,0.5,0.9,0.9c0.2,0.4,0.3,0.8,0.3,1.3c0,0.3-0.1,0.6-0.2,0.9
				c-0.1,0.3-0.3,0.5-0.6,0.7c-0.2,0.2-0.6,0.3-0.9,0.4c0.4,0.1,0.7,0.2,1,0.4s0.5,0.5,0.6,0.8c0.1,0.3,0.2,0.6,0.2,1v0
				c0,0.5-0.1,0.9-0.3,1.3s-0.5,0.7-1,0.9s-0.9,0.3-1.4,0.3h-3L363.7,362.9L363.7,362.9z"/>
			<path d="M371.4,354.9h1.3v9.2h-1.3V354.9z M372,354.9h5.3v1.2H372V354.9z M372,358.9h4.6v1.2H372V358.9z M372,362.9h5.3v1.2H372
				V362.9z"/>
			<path d="M380.4,364.1h-1.3v-9.2h1.3V364.1z"/>
			<path d="M382.7,354.9h1.2l4.5,7.1l-0.1,0.2v-7.3h1.3v9.2h-1.2l-4.5-7l0.1-0.2v7.2h-1.3L382.7,354.9L382.7,354.9z"/>
			<path d="M398.1,359.2v1.6c0,0.7-0.1,1.3-0.4,1.8s-0.6,0.9-1.1,1.2c-0.5,0.3-1,0.4-1.7,0.4c-0.6,0-1.2-0.1-1.7-0.4
				c-0.5-0.3-0.9-0.6-1.1-1.1s-0.4-1.1-0.4-1.7v-2.7c0-0.7,0.1-1.3,0.4-1.8s0.6-0.9,1.1-1.2c0.5-0.3,1-0.4,1.7-0.4
				c0.5,0,1,0.1,1.5,0.3c0.5,0.2,0.8,0.5,1.1,1s0.5,0.9,0.6,1.4h-1.4c-0.1-0.3-0.2-0.6-0.4-0.8c-0.2-0.2-0.4-0.4-0.6-0.5
				c-0.2-0.1-0.5-0.2-0.8-0.2c-0.4,0-0.7,0.1-1,0.3c-0.3,0.2-0.5,0.4-0.7,0.8s-0.2,0.7-0.2,1.1v2.7c0,0.4,0.1,0.8,0.2,1
				c0.2,0.3,0.4,0.5,0.7,0.7s0.6,0.2,1,0.2c0.4,0,0.7-0.1,1-0.3c0.3-0.2,0.5-0.4,0.7-0.8s0.2-0.7,0.2-1.2v-0.4h-1.9v-1.2
				L398.1,359.2L398.1,359.2z"/>
		</g>
	</g>
	<g>
		<g>
			<path d="M383.3,441.6h1.7V453h-1.7V441.6z M384.3,446.6h6.6v1.5h-6.6V446.6z M390,441.6h1.7V453H390V441.6z"/>
			<path d="M394.6,441.6h1.7V453h-1.7V441.6z M395.4,441.6h6.8v1.5h-6.8V441.6z M395.4,446.5h5.9v1.5h-5.9V446.5z M395.4,451.4h6.8
				v1.5h-6.8V451.4z"/>
			<path d="M407.8,441.6h1.4l4.4,11.4h-1.8l-3.3-9.2l-3.3,9.2h-1.8L407.8,441.6z M405.5,448.9h6.2v1.5h-6.2V448.9z"/>
			<path d="M415.4,441.6h1.7V453h-1.7V441.6z M416.2,451.4h6.8v1.5h-6.8V451.4z"/>
			<path d="M423.3,441.6h8.4v1.5h-8.4V441.6z M426.7,442.5h1.7V453h-1.7V442.5z"/>
			<path d="M433,441.6h1.7V453H433V441.6z M434,446.6h6.6v1.5H434V446.6z M439.7,441.6h1.7V453h-1.7V441.6z"/>
		</g>
	</g>
	<g>
		<g>
			<path d="M314.4,548.7h1.5v9.2h-1.5V548.7z M315.2,548.7h6.1v1.2h-6.1V548.7z M315.2,552.8h5.3v1.2h-5.3V552.8z"/>
			<path d="M326,548.7h1.3l4,9.2h-1.6l-3-7.5l-3,7.5H322L326,548.7z M323.8,554.7h5.7v1.2h-5.7V554.7z"/>
			<path d="M340.8,548.7h1.4v9.2h-1.5V551l0.1,0.4l-2.7,5.2h-1.1l-2.7-5.1l0.1-0.5v6.9H333v-9.2h1.4l3.2,6.1L340.8,548.7z"/>
			<path d="M346.5,557.9H345v-9.2h1.5V557.9z"/>
			<path d="M349.2,548.7h1.5v9.2h-1.5V548.7z M350,556.7h6.2v1.2H350V556.7z"/>
			<path d="M361.3,554.2v3.8h-1.5v-3.8l-3.3-5.5h1.7l2.4,4.2l2.4-4.2h1.7L361.3,554.2z"/>
			<path d="M371.5,554.3c-0.3,0.3-0.5,0.6-0.5,1.1c0,0.5,0.2,0.8,0.5,1.1c0.4,0.3,0.9,0.4,1.5,0.4c0.6,0,1.2-0.1,1.6-0.4
				c0.5-0.3,0.8-0.7,1-1.2c0.2-0.5,0.4-1.2,0.4-2h1.5c0,1-0.2,1.9-0.6,2.6s-0.9,1.3-1.6,1.6c-0.7,0.4-1.6,0.6-2.6,0.6
				c-0.7,0-1.3-0.1-1.8-0.3c-0.5-0.2-0.9-0.5-1.1-0.9c-0.2-0.4-0.4-0.9-0.4-1.4c0-0.8,0.2-1.4,0.7-1.8s1.2-0.7,2.1-0.8l0.6,1.1
				C372.3,553.9,371.8,554,371.5,554.3z M372.2,554.2c-0.4-0.3-0.6-0.6-0.9-1s-0.4-0.7-0.6-1s-0.2-0.7-0.2-1.1
				c0-0.8,0.2-1.4,0.8-1.9s1.2-0.7,2.2-0.7s1.6,0.2,2.1,0.6c0.5,0.4,0.8,1,0.8,1.8v0.1h-1.5v-0.1c0-0.4-0.1-0.7-0.4-0.9
				s-0.6-0.3-1-0.3c-0.5,0-0.8,0.1-1,0.3c-0.2,0.2-0.4,0.5-0.4,0.9c0,0.2,0,0.5,0.1,0.8s0.2,0.5,0.4,0.8c0.2,0.3,0.4,0.5,0.7,0.7
				l5,4.5h-1.9L372.2,554.2z"/>
			<path d="M316,573.2c-0.6-0.3-1-0.7-1.3-1.2s-0.5-1.1-0.5-1.8v-2.5c0-0.7,0.2-1.3,0.5-1.8c0.3-0.5,0.8-0.9,1.3-1.2
				c0.6-0.3,1.2-0.4,2-0.4c0.6,0,1.2,0.1,1.7,0.3c0.5,0.2,1,0.5,1.3,1c0.4,0.4,0.6,0.9,0.7,1.4h-1.6c-0.1-0.3-0.2-0.5-0.5-0.8
				s-0.5-0.4-0.8-0.5s-0.6-0.2-0.9-0.2c-0.5,0-0.8,0.1-1.2,0.3c-0.3,0.2-0.6,0.4-0.8,0.8s-0.3,0.7-0.3,1.2v2.5
				c0,0.4,0.1,0.8,0.3,1.1s0.5,0.6,0.8,0.8c0.3,0.2,0.7,0.3,1.2,0.3c0.3,0,0.6-0.1,0.9-0.2c0.3-0.1,0.6-0.3,0.8-0.5
				c0.2-0.2,0.4-0.5,0.5-0.8h1.6c-0.1,0.5-0.4,1-0.7,1.4s-0.8,0.7-1.3,1s-1.1,0.3-1.7,0.3C317.2,573.6,316.6,573.5,316,573.2z"/>
			<path d="M325.5,573.2c-0.6-0.3-1-0.7-1.4-1.2s-0.5-1.1-0.5-1.8v-2.6c0-0.7,0.2-1.3,0.5-1.8c0.3-0.5,0.8-0.9,1.4-1.2
				c0.6-0.3,1.2-0.4,2-0.4s1.4,0.1,2,0.4s1,0.7,1.4,1.2s0.5,1.1,0.5,1.8v2.6c0,0.7-0.2,1.3-0.5,1.8c-0.3,0.5-0.8,0.9-1.4,1.2
				s-1.2,0.4-2,0.4S326.1,573.5,325.5,573.2z M328.8,572.1c0.3-0.2,0.6-0.4,0.8-0.7s0.3-0.7,0.3-1.1v-2.7c0-0.4-0.1-0.8-0.3-1.1
				s-0.5-0.6-0.8-0.7c-0.3-0.2-0.7-0.3-1.2-0.3s-0.9,0.1-1.2,0.3s-0.6,0.4-0.8,0.7s-0.3,0.7-0.3,1.1v2.7c0,0.4,0.1,0.8,0.3,1.1
				s0.5,0.6,0.8,0.7c0.3,0.2,0.7,0.3,1.2,0.3S328.4,572.2,328.8,572.1z"/>
			<path d="M341.7,564.3h1.4v9.2h-1.5v-6.9l0.1,0.4l-2.7,5.2H338l-2.7-5.1l0.1-0.5v6.9h-1.5v-9.2h1.4l3.2,6.1L341.7,564.3z"/>
			<path d="M353.7,564.3h1.4v9.2h-1.5v-6.9l0.1,0.4l-2.7,5.2h-1.1l-2.7-5.1l0.1-0.5v6.9h-1.5v-9.2h1.4l3.2,6.1L353.7,564.3z"/>
			<path d="M359.4,573.2c-0.6-0.3-1-0.7-1.3-1.2s-0.5-1.1-0.5-1.9v-5.9h1.5v5.9c0,0.7,0.2,1.2,0.6,1.6s1,0.5,1.7,0.5
				c0.7,0,1.3-0.2,1.7-0.5c0.4-0.4,0.6-0.9,0.6-1.6v-5.9h1.5v5.9c0,0.7-0.1,1.3-0.5,1.9c-0.3,0.5-0.7,0.9-1.3,1.2
				c-0.6,0.3-1.3,0.4-2.1,0.4S360,573.5,359.4,573.2z"/>
			<path d="M367.9,564.3h1.4l5.3,7.1l-0.2,0.2v-7.3h1.5v9.2h-1.4l-5.3-7l0.2-0.2v7.2h-1.5L367.9,564.3L367.9,564.3z"/>
			<path d="M380.2,573.5h-1.5v-9.2h1.5V573.5z"/>
			<path d="M381.4,564.3h7.7v1.2h-7.7V564.3z M384.5,565h1.5v8.5h-1.5V565z"/>
			<path d="M393.6,569.8v3.8h-1.5v-3.8l-3.3-5.5h1.7l2.4,4.2l2.4-4.2h1.7L393.6,569.8z"/>
		</g>
	</g>
	<g>
		<g>
			<path d="M214,558.1h1.4v9.3H214V558.1z M214.9,562.2h5.5v1.2h-5.5V562.2z M219.7,558.1h1.4v9.3h-1.4V558.1z"/>
			<path d="M225,567c-0.5-0.3-0.9-0.7-1.2-1.2s-0.4-1.1-0.4-1.8v-2.6c0-0.7,0.1-1.3,0.4-1.8s0.7-0.9,1.2-1.2s1.1-0.4,1.8-0.4
				s1.3,0.1,1.8,0.4s0.9,0.7,1.2,1.2s0.4,1.1,0.4,1.8v2.6c0,0.7-0.1,1.3-0.4,1.8c-0.3,0.5-0.7,0.9-1.2,1.2s-1.1,0.4-1.8,0.4
				S225.5,567.3,225,567z M227.9,565.9c0.3-0.2,0.6-0.4,0.7-0.7c0.2-0.3,0.3-0.7,0.3-1.1v-2.7c0-0.4-0.1-0.8-0.3-1.1
				c-0.2-0.3-0.4-0.6-0.7-0.7s-0.7-0.3-1.1-0.3s-0.8,0.1-1.1,0.3s-0.6,0.4-0.7,0.7c-0.2,0.3-0.3,0.7-0.3,1.1v2.7
				c0,0.4,0.1,0.8,0.3,1.1c0.2,0.3,0.4,0.6,0.7,0.7s0.7,0.3,1.1,0.3S227.6,566.1,227.9,565.9z"/>
			<path d="M234,567.1c-0.5-0.3-0.9-0.7-1.2-1.2s-0.4-1.1-0.4-1.9v-5.9h1.4v6c0,0.7,0.2,1.2,0.6,1.6c0.4,0.4,0.9,0.6,1.5,0.6
				c0.7,0,1.2-0.2,1.6-0.6c0.4-0.4,0.6-0.9,0.6-1.6v-6h1.4v5.9c0,0.7-0.1,1.3-0.4,1.9s-0.7,0.9-1.2,1.2s-1.1,0.4-1.9,0.4
				C235.2,567.5,234.5,567.3,234,567.1z"/>
			<path d="M243.3,567.3c-0.4-0.1-0.8-0.2-1.2-0.4s-0.7-0.4-1-0.6l0.9-1c0.4,0.3,0.8,0.5,1.2,0.7s0.9,0.2,1.5,0.2
				c0.7,0,1.3-0.1,1.7-0.4c0.4-0.2,0.6-0.6,0.6-1.1v0c0-0.3-0.1-0.6-0.3-0.8c-0.2-0.2-0.4-0.3-0.7-0.4c-0.3-0.1-0.6-0.2-1.1-0.2
				c0,0,0,0,0,0c0,0,0,0,0,0l-0.1,0c-0.7-0.1-1.2-0.2-1.6-0.4c-0.4-0.1-0.8-0.4-1.1-0.7s-0.4-0.9-0.4-1.5v0c0-0.6,0.1-1.1,0.4-1.5
				c0.3-0.4,0.7-0.7,1.2-0.9c0.5-0.2,1.2-0.3,1.9-0.3c0.4,0,0.7,0,1.1,0.1s0.7,0.2,1,0.3s0.7,0.3,1,0.5l-0.8,1
				c-0.4-0.3-0.8-0.5-1.1-0.6s-0.8-0.2-1.1-0.2c-0.7,0-1.2,0.1-1.6,0.4c-0.4,0.2-0.6,0.6-0.6,1.1v0c0,0.3,0.1,0.6,0.3,0.8
				c0.2,0.2,0.4,0.3,0.7,0.4c0.3,0.1,0.7,0.2,1.2,0.3c0,0,0,0,0.1,0c0,0,0,0,0.1,0c0,0,0.1,0,0.1,0s0.1,0,0.1,0
				c0.6,0.1,1.1,0.2,1.5,0.4c0.4,0.2,0.7,0.4,1,0.8c0.3,0.3,0.4,0.8,0.4,1.4v0c0,0.6-0.1,1-0.4,1.5c-0.3,0.4-0.7,0.7-1.2,0.9
				c-0.5,0.2-1.2,0.3-2,0.3C244.2,567.5,243.8,567.4,243.3,567.3z"/>
			<path d="M251.7,567.4h-1.4v-9.3h1.4V567.4z"/>
			<path d="M254.2,558.1h1.3l4.9,7.2l-0.2,0.2v-7.3h1.4v9.3h-1.3l-4.8-7.1l0.2-0.2v7.2h-1.4L254.2,558.1L254.2,558.1z"/>
			<path d="M270.8,562.4v1.6c0,0.7-0.1,1.3-0.4,1.8c-0.3,0.5-0.7,0.9-1.2,1.2s-1.1,0.4-1.8,0.4c-0.7,0-1.3-0.1-1.9-0.4
				s-0.9-0.7-1.2-1.2c-0.3-0.5-0.4-1.1-0.4-1.7v-2.7c0-0.7,0.1-1.3,0.4-1.8s0.7-0.9,1.2-1.2s1.1-0.4,1.8-0.4c0.6,0,1.1,0.1,1.6,0.3
				c0.5,0.2,0.9,0.5,1.2,1c0.3,0.4,0.5,0.9,0.7,1.5h-1.5c-0.1-0.3-0.2-0.6-0.4-0.8s-0.4-0.4-0.7-0.5s-0.5-0.2-0.8-0.2
				c-0.4,0-0.8,0.1-1.1,0.3s-0.5,0.4-0.7,0.8s-0.2,0.7-0.2,1.2v2.7c0,0.4,0.1,0.8,0.3,1s0.4,0.5,0.7,0.7s0.7,0.2,1.1,0.2
				c0.4,0,0.8-0.1,1.1-0.3s0.5-0.4,0.7-0.8s0.2-0.7,0.2-1.2v-0.4h-2v-1.2L270.8,562.4L270.8,562.4z"/>
		</g>
	</g>
	<rect x="317.2" y="556.7" class="st7" width="9.1" height="1.3"/>
</g>
</svg>
